<svg xmlns="http://www.w3.org/2000/svg" viewBox="0 0 384 64"><path d="M19.41 39.51H7.58L4.5 46.23H0l13.68-29.39 13.2 29.39h-4.57zm-1.7-3.92l-4.1-9.4-4.3 9.4zM38.18 35v11.23H34V18.58h4.72a21.47 21.47 0 0 1 5.25.48 7 7 0 0 1 3.15 1.83 7.85 7.85 0 0 1 2.38 5.87 7.57 7.57 0 0 1-2.54 6A10.05 10.05 0 0 1 40.11 35zm0-3.87h1.56q5.74 0 5.75-4.42c0-2.86-2-4.28-5.93-4.28h-1.38zM61.65 35v11.23h-4.17V18.58h4.73a21.58 21.58 0 0 1 5.25.48 7 7 0 0 1 3.15 1.83A7.85 7.85 0 0 1 73 26.76a7.6 7.6 0 0 1-2.54 6A10.09 10.09 0 0 1 63.59 35zm0-3.87h1.56q5.75 0 5.75-4.42c0-2.86-2-4.28-5.93-4.28h-1.38zM85.13 18.58v23.73h8.13v3.92H81V18.58zM116.14 22.5h-11.08v6.64h10.76v3.93h-10.76v9.24h11.08v3.92h-15.26V18.58h15.26zM140.93 22.7l-3.39 2a5.77 5.77 0 0 0-1.81-2.15 4.2 4.2 0 0 0-2.31-.57 4.28 4.28 0 0 0-2.88 1 3.05 3.05 0 0 0-1.15 2.44c0 1.35 1 2.44 3 3.26l2.76 1.13a11.73 11.73 0 0 1 4.92 3.32 7.49 7.49 0 0 1 1.56 4.81 8.46 8.46 0 0 1-2.54 6.3 8.71 8.71 0 0 1-6.36 2.51 8.49 8.49 0 0 1-5.94-2.13 9.8 9.8 0 0 1-2.89-6l4.23-.93a7.13 7.13 0 0 0 1 3.36 4.75 4.75 0 0 0 7 .49 4.52 4.52 0 0 0 1.29-3.31 4.64 4.64 0 0 0-.22-1.48 3.74 3.74 0 0 0-.7-1.24 5.42 5.42 0 0 0-1.23-1.05 11.36 11.36 0 0 0-1.79-.95l-2.66-1.11c-3.79-1.59-5.68-3.94-5.68-7a6.66 6.66 0 0 1 2.38-5.21 8.6 8.6 0 0 1 5.94-2.19c3.19 0 5.67 1.59 7.47 4.7zM164 32.28a13.56 13.56 0 0 1 4.28-10 14.06 14.06 0 0 1 10.24-4.19 13.86 13.86 0 0 1 10.14 4.22 13.83 13.83 0 0 1 4.24 10.16 13.61 13.61 0 0 1-4.26 10.12 14.61 14.61 0 0 1-20 .46A13.56 13.56 0 0 1 164 32.28zm4.21 0a10.25 10.25 0 0 0 17.5 7.49 10.2 10.2 0 0 0 3-7.42 10.12 10.12 0 0 0-3-7.41 10.31 10.31 0 0 0-14.56 0 10 10 0 0 0-2.99 7.39zM215.58 22.5h-9.64v6.64h9.3v3.93h-9.3v13.16h-4.17V18.58h13.81zM238.1 46.23l5.82-29.73 9.49 21.5 9.83-21.49 5.23 29.73h-4.28l-2.67-16.69-8.18 18-8-18-3 16.71zM283.58 34.28l-9-15.7h4.8l6.32 11.05 6.34-11h4.8l-9.06 15.7v11.9h-4.18zM333.92 22.5h-11.09v6.64h10.77v3.93h-10.77v9.24h11.09v3.92h-15.26V18.58h15.26zM348.66 34.28l-9-15.7h4.8l6.32 11.05 6.34-11h4.8l-9.06 15.7v11.9h-4.17zM384 22.5h-11.08v6.64h10.76v3.93h-10.76v9.24H384v3.92h-15.25V18.58H384z"/></svg>