<svg xmlns="http://www.w3.org/2000/svg" viewBox="0 0 766 62"><defs><style>.a{fill:#fefefe;}</style></defs><title>Resurs 2</title><path class="a" d="M38.72,46H15.12L9,59.36H0L27.29.68,53.62,59.36H44.5Zm-3.39-7.83L27.15,19.35,18.57,38.12Z"/><path class="a" d="M76.16,36.94V59.36H67.82V4.15h9.42a42.82,42.82,0,0,1,10.47,1A13.84,13.84,0,0,1,94,8.77a15.67,15.67,0,0,1,4.75,11.72,15.16,15.16,0,0,1-5.06,12A20.06,20.06,0,0,1,80,36.94Zm0-7.73h3.11q11.46,0,11.47-8.82c0-5.71-4-8.55-11.83-8.55H76.16Z"/><path class="a" d="M123,36.94V59.36h-8.32V4.15h9.44a43.37,43.37,0,0,1,10.47,1,13.84,13.84,0,0,1,6.28,3.66,15.64,15.64,0,0,1,4.77,11.72,15.2,15.2,0,0,1-5.07,12,20.14,20.14,0,0,1-13.7,4.47Zm0-7.73h3.11q11.47,0,11.47-8.82c0-5.71-4-8.55-11.83-8.55H123Z"/><path class="a" d="M169.82,4.15V51.54H186v7.82H161.58V4.15Z"/><path class="a" d="M231.68,12H209.57V25.24H231v7.85H209.57V51.54h22.11v7.82H201.23V4.15h30.45Z"/><path class="a" d="M281.13,12.38l-6.77,4a11.52,11.52,0,0,0-3.61-4.29,8.34,8.34,0,0,0-4.6-1.14,8.56,8.56,0,0,0-5.75,2,6.07,6.07,0,0,0-2.29,4.87q0,4.05,6,6.51l5.51,2.26a23.37,23.37,0,0,1,9.81,6.63,14.92,14.92,0,0,1,3.11,9.6,16.9,16.9,0,0,1-5.06,12.58,17.39,17.39,0,0,1-12.69,5,16.92,16.92,0,0,1-11.85-4.25,19.62,19.62,0,0,1-5.77-12l8.44-1.86a14.29,14.29,0,0,0,2,6.71,9.47,9.47,0,0,0,13.31,1.55c.22-.18.44-.37.65-.57a9,9,0,0,0,2.57-6.61,9.31,9.31,0,0,0-.43-3,7.67,7.67,0,0,0-1.4-2.47,10.91,10.91,0,0,0-2.45-2.1A22.26,22.26,0,0,0,266.26,34L261,31.75c-7.56-3.18-11.33-7.87-11.33-14a13.26,13.26,0,0,1,4.75-10.4A17.1,17.1,0,0,1,266.22,3C272.59,3,277.54,6.17,281.13,12.38Z"/><path class="a" d="M327.15,31.51a27.07,27.07,0,0,1,8.53-20,28.09,28.09,0,0,1,20.43-8.37,27.68,27.68,0,0,1,20.23,8.43,27.68,27.68,0,0,1,8.46,20.29,27.25,27.25,0,0,1-8.5,20.21,29.12,29.12,0,0,1-39.9.91A27.05,27.05,0,0,1,327.15,31.51Zm8.39,0a20.45,20.45,0,1,0,40.9.14,20.21,20.21,0,0,0-6-14.8,20.55,20.55,0,0,0-29,0,20,20,0,0,0-6,14.76Z"/><path class="a" d="M430,12H410.81V25.24h18.55v7.85H410.81V59.36h-8.32V4.15H430Z"/><path class="a" d="M475,59.36,486.57,0,505.5,42.93,525.11,0l10.43,59.36H527l-5.32-33.32L505.36,62l-16-35.94-6,33.36Z"/><path class="a" d="M565.68,35.5,547.73,4.15h9.57l12.61,22.07,12.65-22h9.57L574.06,35.6V59.36h-8.34Z"/><path class="a" d="M666.1,12H644V25.24h21.48v7.85H644V51.54H666.1v7.82H635.66V4.15H666.1Z"/><path class="a" d="M695.5,35.5l-18-31.35h9.58l12.6,22.07,12.65-22H722L703.88,35.6V59.36h-8.32Z"/><path class="a" d="M766,12H743.9V25.24h21.46v7.85H743.9V51.54H766v7.82H735.58V4.15H766Z"/></svg>