<svg xmlns="http://www.w3.org/2000/svg" viewBox="0 0 64 64"><defs><style>.a{fill:#1d1d1b;}</style></defs><title>Resurs 1</title><path class="a" d="M51.53,52.4a.87.87,0,0,1-.62-.26L33.49,34.72a.87.87,0,0,1,1.22-1.24L52.15,50.92a.87.87,0,0,1-.62,1.48Zm.09-1Z"/><path d="M35,16.47H33.84l-.49-1.37H31l-.47,1.37H29.41l2.11-5.79h1.37ZM32.2,11.65l-.88,2.51h1.75Z"/><path d="M30.36,52.37V46.59h4v.95H31.48V49H33.8v1H31.48v1.47h2.83v.95Z"/><path d="M14.6,34.49a2.81,2.81,0,0,1-3-3,2.91,2.91,0,0,1,3-3.05,2.81,2.81,0,0,1,3,3A2.91,2.91,0,0,1,14.6,34.49Zm0-5.11a1.83,1.83,0,0,0-1.81,2.06,1.87,1.87,0,0,0,1.85,2.11,1.85,1.85,0,0,0,1.82-2.07A1.87,1.87,0,0,0,14.58,29.38Z"/><path d="M52,29.72l-1.51,4.55H49.34l-1.52-4.55,0,4.64H46.7l.2-5.79h1.56L50,33.13l1.49-4.56H53l.18,5.79H52.08Z"/><path class="a" d="M29.93,30.8a.84.84,0,0,1-.62-.26L11.85,13.08a.87.87,0,0,1,0-1.23.89.89,0,0,1,1.23,0L30.54,29.31a.88.88,0,0,1-.61,1.49Z"/><path class="a" d="M12.47,52.4a.87.87,0,0,1-.62-1.48L29.29,33.48a.87.87,0,1,1,1.23,1.23L13.08,52.15A.86.86,0,0,1,12.47,52.4Z"/><path class="a" d="M34.1,30.77a.9.9,0,0,1-.62-.25.87.87,0,0,1,0-1.23L50.92,11.85a.88.88,0,0,1,1.23,0,.9.9,0,0,1,.25.62.87.87,0,0,1-.26.62L34.71,30.52A.86.86,0,0,1,34.1,30.77ZM51.44,12.38Z"/><path class="a" d="M32,64A32,32,0,1,1,64,32,32,32,0,0,1,32,64ZM32,1.71A30.29,30.29,0,1,0,62.29,32,30.33,30.33,0,0,0,32,1.71Z"/></svg>