<?xml version="1.0" encoding="utf-8"?>
<!-- Generator: Adobe Illustrator 22.0.1, SVG Export Plug-In . SVG Version: 6.00 Build 0)  -->
<!DOCTYPE svg PUBLIC "-//W3C//DTD SVG 1.1//EN" "http://www.w3.org/Graphics/SVG/1.1/DTD/svg11.dtd">
<svg version="1.1" id="Lager_1" xmlns="http://www.w3.org/2000/svg" xmlns:xlink="http://www.w3.org/1999/xlink" x="0px" y="0px"
	 viewBox="0 0 32 32" style="enable-background:new 0 0 32 32;" xml:space="preserve">
<style type="text/css">
	.st0{fill:#FFFFFF;}
	.st1{fill:#444444;}
</style>
<title>Rityta 1 kopia</title>
<circle class="st0" cx="16" cy="16" r="15"/>
<circle class="st1" cx="21" cy="11" r="1"/>
<path class="st1" d="M22,8c1.1,0,2,0.9,2,2v12c0,1.1-0.9,2-2,2H10c-1.1,0-2-0.9-2-2V10c0-1.1,0.9-2,2-2H22 M22,7H10
	c-1.7,0-3,1.3-3,3v12c0,1.7,1.3,3,3,3h12c1.7,0,3-1.3,3-3V10C25,8.3,23.7,7,22,7z"/>
<path class="st1" d="M16,12c2.2,0,4,1.8,4,4s-1.8,4-4,4s-4-1.8-4-4S13.8,12,16,12 M16,11c-2.8,0-5,2.2-5,5s2.2,5,5,5s5-2.2,5-5
	S18.8,11,16,11z"/>
</svg>
